HIERARCHY
ROOT Hips
{
  OFFSET -3.66935 93.8938 9.47546
  CHANNELS 6 Xposition Yposition Zposition Zrotation Xrotation Yrotation
  JOINT Spine
  {
    OFFSET 0 8.59463 0
    CHANNELS 6 Xposition Yposition Zposition Zrotation Xrotation Yrotation
    JOINT Spine1
    {
      OFFSET 0 8.59463 0
      CHANNELS 6 Xposition Yposition Zposition Zrotation Xrotation Yrotation
      JOINT Spine2
      {
        OFFSET 0 8.59463 0
        CHANNELS 6 Xposition Yposition Zposition Zrotation Xrotation Yrotation
        JOINT Spine3
        {
          OFFSET 0 8.59463 0
          CHANNELS 6 Xposition Yposition Zposition Zrotation Xrotation Yrotation
          JOINT Neck
          {
            OFFSET 0 18.2636 0
            CHANNELS 6 Xposition Yposition Zposition Zrotation Xrotation Yrotation
            JOINT Head
            {
              OFFSET 0 11.6027 0
              CHANNELS 6 Xposition Yposition Zposition Zrotation Xrotation Yrotation
              End Site
              {
                OFFSET 0 21.7552 0
              }
            }
          }
          JOINT LeftShoulder
          {
            OFFSET 5 17 0
            CHANNELS 6 Xposition Yposition Zposition Zrotation Xrotation Yrotation
            JOINT LeftShoulder2
            {
              OFFSET 7.25 0 0
              CHANNELS 6 Xposition Yposition Zposition Zrotation Xrotation Yrotation
              JOINT LeftArm
              {
                OFFSET 7.25 0 0
                CHANNELS 6 Xposition Yposition Zposition Zrotation Xrotation Yrotation
                JOINT LeftForeArm
                {
                  OFFSET 0 -30.1395 -2
                  CHANNELS 6 Xposition Yposition Zposition Zrotation Xrotation Yrotation
                  JOINT LeftHand
                  {
                    OFFSET 0 -23.8605 2
                    CHANNELS 6 Xposition Yposition Zposition Zrotation Xrotation Yrotation
                    JOINT LeftHandThumb1
                    {
                      OFFSET -0.5 -1.5 2.65
                      CHANNELS 6 Xposition Yposition Zposition Zrotation Xrotation Yrotation
                      JOINT LeftHandThumb2
                      {
                        OFFSET 0 -3.8 3.7
                        CHANNELS 6 Xposition Yposition Zposition Zrotation Xrotation Yrotation
                        JOINT LeftHandThumb3
                        {
                          OFFSET 0 -3 2.7
                          CHANNELS 6 Xposition Yposition Zposition Zrotation Xrotation Yrotation
                          End Site
                          {
                            OFFSET 0 -2.3 1.8
                          }
                        }
                      }
                    }
                    JOINT LeftHandIndex
                    {
                      OFFSET 0 -1.9 1.6
                      CHANNELS 6 Xposition Yposition Zposition Zrotation Xrotation Yrotation
                      JOINT LeftHandIndex1
                      {
                        OFFSET 0 -8.3 1.9
                        CHANNELS 6 Xposition Yposition Zposition Zrotation Xrotation Yrotation
                        JOINT LeftHandIndex2
                        {
                          OFFSET 0 -4.5 0
                          CHANNELS 6 Xposition Yposition Zposition Zrotation Xrotation Yrotation
                          JOINT LeftHandIndex3
                          {
                            OFFSET 0 -3.4 0
                            CHANNELS 6 Xposition Yposition Zposition Zrotation Xrotation Yrotation
                            End Site
                            {
                              OFFSET 0 -2.6 0
                            }
                          }
                        }
                      }
                    }
                    JOINT LeftHandMiddle
                    {
                      OFFSET -0.25 -2.2 0.4
                      CHANNELS 6 Xposition Yposition Zposition Zrotation Xrotation Yrotation
                      JOINT LeftHandMiddle1
                      {
                        OFFSET 0 -8.3 1
                        CHANNELS 6 Xposition Yposition Zposition Zrotation Xrotation Yrotation
                        JOINT LeftHandMiddle2
                        {
                          OFFSET 0 -4.65 0
                          CHANNELS 6 Xposition Yposition Zposition Zrotation Xrotation Yrotation
                          JOINT LeftHandMiddle3
                          {
                            OFFSET 0 -3.3 0
                            CHANNELS 6 Xposition Yposition Zposition Zrotation Xrotation Yrotation
                            End Site
                            {
                              OFFSET 0 -2.7 0
                            }
                          }
                        }
                      }
                    }
                    JOINT LeftHandRing
                    {
                      OFFSET -0.5 -2.15 -0.8
                      CHANNELS 6 Xposition Yposition Zposition Zrotation Xrotation Yrotation
                      JOINT LeftHandRing1
                      {
                        OFFSET 0 -7.75 -0.2
                        CHANNELS 6 Xposition Yposition Zposition Zrotation Xrotation Yrotation
                        JOINT LeftHandRing2
                        {
                          OFFSET 0 -3.8 0
                          CHANNELS 6 Xposition Yposition Zposition Zrotation Xrotation Yrotation
                          JOINT LeftHandRing3
                          {
                            OFFSET 0 -3.4 0
                            CHANNELS 6 Xposition Yposition Zposition Zrotation Xrotation Yrotation
                            End Site
                            {
                              OFFSET 0 -2.6 0
                            }
                          }
                        }
                      }
                    }
                    JOINT LeftHandPinky
                    {
                      OFFSET -0.75 -1.75 -1.85
                      CHANNELS 6 Xposition Yposition Zposition Zrotation Xrotation Yrotation
                      JOINT LeftHandPinky1
                      {
                        OFFSET 0 -7.15 -1
                        CHANNELS 6 Xposition Yposition Zposition Zrotation Xrotation Yrotation
                        JOINT LeftHandPinky2
                        {
                          OFFSET 0 -3 0
                          CHANNELS 6 Xposition Yposition Zposition Zrotation Xrotation Yrotation
                          JOINT LeftHandPinky3
                          {
                            OFFSET 0 -2.35 0
                            CHANNELS 6 Xposition Yposition Zposition Zrotation Xrotation Yrotation
                            End Site
                            {
                              OFFSET 0 -2.1 0
                            }
                          }
                        }
                      }
                    }
                  }
                }
              }
            }
          }
          JOINT RightShoulder
          {
            OFFSET -5 17 0
            CHANNELS 6 Xposition Yposition Zposition Zrotation Xrotation Yrotation
            JOINT RightShoulder2
            {
              OFFSET -7.25 0 0
              CHANNELS 6 Xposition Yposition Zposition Zrotation Xrotation Yrotation
              JOINT RightArm
              {
                OFFSET -7.25 0 0
                CHANNELS 6 Xposition Yposition Zposition Zrotation Xrotation Yrotation
                JOINT RightForeArm
                {
                  OFFSET 0 -30.1395 -2
                  CHANNELS 6 Xposition Yposition Zposition Zrotation Xrotation Yrotation
                  JOINT RightHand
                  {
                    OFFSET 0 -23.8605 2
                    CHANNELS 6 Xposition Yposition Zposition Zrotation Xrotation Yrotation
                    JOINT RightHandThumb1
                    {
                      OFFSET 0.5 -1.5 2.65
                      CHANNELS 6 Xposition Yposition Zposition Zrotation Xrotation Yrotation
                      JOINT RightHandThumb2
                      {
                        OFFSET 0 -3.8 3.7
                        CHANNELS 6 Xposition Yposition Zposition Zrotation Xrotation Yrotation
                        JOINT RightHandThumb3
                        {
                          OFFSET 0 -3 2.7
                          CHANNELS 6 Xposition Yposition Zposition Zrotation Xrotation Yrotation
                          End Site
                          {
                            OFFSET 0 -2.3 1.8
                          }
                        }
                      }
                    }
                    JOINT RightHandIndex
                    {
                      OFFSET 0 -1.9 1.6
                      CHANNELS 6 Xposition Yposition Zposition Zrotation Xrotation Yrotation
                      JOINT RightHandIndex1
                      {
                        OFFSET 0 -8.3 1.9
                        CHANNELS 6 Xposition Yposition Zposition Zrotation Xrotation Yrotation
                        JOINT RightHandIndex2
                        {
                          OFFSET 0 -4.5 0
                          CHANNELS 6 Xposition Yposition Zposition Zrotation Xrotation Yrotation
                          JOINT RightHandIndex3
                          {
                            OFFSET 0 -3.4 0
                            CHANNELS 6 Xposition Yposition Zposition Zrotation Xrotation Yrotation
                            End Site
                            {
                              OFFSET 0 -2.6 0
                            }
                          }
                        }
                      }
                    }
                    JOINT RightHandMiddle
                    {
                      OFFSET 0.25 -2.2 0.4
                      CHANNELS 6 Xposition Yposition Zposition Zrotation Xrotation Yrotation
                      JOINT RightHandMiddle1
                      {
                        OFFSET 0 -8.3 1
                        CHANNELS 6 Xposition Yposition Zposition Zrotation Xrotation Yrotation
                        JOINT RightHandMiddle2
                        {
                          OFFSET 0 -4.65 0
                          CHANNELS 6 Xposition Yposition Zposition Zrotation Xrotation Yrotation
                          JOINT RightHandMiddle3
                          {
                            OFFSET 0 -3.3 0
                            CHANNELS 6 Xposition Yposition Zposition Zrotation Xrotation Yrotation
                            End Site
                            {
                              OFFSET 0 -2.7 0
                            }
                          }
                        }
                      }
                    }
                    JOINT RightHandRing
                    {
                      OFFSET 0.5 -2.15 -0.8
                      CHANNELS 6 Xposition Yposition Zposition Zrotation Xrotation Yrotation
                      JOINT RightHandRing1
                      {
                        OFFSET 0 -7.75 -0.2
                        CHANNELS 6 Xposition Yposition Zposition Zrotation Xrotation Yrotation
                        JOINT RightHandRing2
                        {
                          OFFSET 0 -3.8 0
                          CHANNELS 6 Xposition Yposition Zposition Zrotation Xrotation Yrotation
                          JOINT RightHandRing3
                          {
                            OFFSET 0 -3.4 0
                            CHANNELS 6 Xposition Yposition Zposition Zrotation Xrotation Yrotation
                            End Site
                            {
                              OFFSET 0 -2.6 0
                            }
                          }
                        }
                      }
                    }
                    JOINT RightHandPinky
                    {
                      OFFSET 0.75 -1.75 -1.85
                      CHANNELS 6 Xposition Yposition Zposition Zrotation Xrotation Yrotation
                      JOINT RightHandPinky1
                      {
                        OFFSET 0 -7.15 -1
                        CHANNELS 6 Xposition Yposition Zposition Zrotation Xrotation Yrotation
                        JOINT RightHandPinky2
                        {
                          OFFSET 0 -3 0
                          CHANNELS 6 Xposition Yposition Zposition Zrotation Xrotation Yrotation
                          JOINT RightHandPinky3
                          {
                            OFFSET 0 -2.35 0
                            CHANNELS 6 Xposition Yposition Zposition Zrotation Xrotation Yrotation
                            End Site
                            {
                              OFFSET 0 -2.1 0
                            }
                          }
                        }
                      }
                    }
                  }
                }
              }
            }
          }
        }
      }
    }
  }
  JOINT LeftUpLeg
  {
    OFFSET 12.5 0 0
    CHANNELS 6 Xposition Yposition Zposition Zrotation Xrotation Yrotation
    JOINT LeftLeg
    {
      OFFSET 0 -45.2616 -1
      CHANNELS 6 Xposition Yposition Zposition Zrotation Xrotation Yrotation
      JOINT LeftFoot
      {
        OFFSET 0 -41.2384 -2
        CHANNELS 6 Xposition Yposition Zposition Zrotation Xrotation Yrotation
        JOINT LeftToeBase
        {
          OFFSET 0 -7.5 12.5
          CHANNELS 6 Xposition Yposition Zposition Zrotation Xrotation Yrotation
          JOINT LeftFootToe
          {
            OFFSET 0 0 4
            CHANNELS 6 Xposition Yposition Zposition Zrotation Xrotation Yrotation
            End Site
            {
              OFFSET 0 0 0
            }
          }
        }
      }
    }
  }
  JOINT RightUpLeg
  {
    OFFSET -12.5 0 0
    CHANNELS 6 Xposition Yposition Zposition Zrotation Xrotation Yrotation
    JOINT RightLeg
    {
      OFFSET 0 -45.2616 -1
      CHANNELS 6 Xposition Yposition Zposition Zrotation Xrotation Yrotation
      JOINT RightFoot
      {
        OFFSET 0 -41.2384 -2
        CHANNELS 6 Xposition Yposition Zposition Zrotation Xrotation Yrotation
        JOINT RightToeBase
        {
          OFFSET 0 -7.5 12.5
          CHANNELS 6 Xposition Yposition Zposition Zrotation Xrotation Yrotation
          JOINT RightFootToe
          {
            OFFSET 0 0 4
            CHANNELS 6 Xposition Yposition Zposition Zrotation Xrotation Yrotation
            End Site
            {
              OFFSET 0 0 0
            }
          }
        }
      }
    }
  }
}
MOTION
Frames:	3
Frame Time:	0.0111111
-3.61394 93.8938 9.52069 -0.0189885 0.0364481 120.747 -8.88178e-16 8.59463 0 0.308553 0.484477 0.284245 -8.88178e-16 8.59463 0 -0.173873 -0.242668 -0.452155 0 8.59463 1.77636e-15 -0.0778114 -0.125241 -0.224646 0 8.59463 -1.77636e-15 -0.0778104 -0.125239 -0.22464 -8.88178e-16 18.2636 8.88178e-16 0.440221 -0.0842709 -0.0680513 0 11.6027 0 -0.345887 -0.433638 -0.176077 5 17 0 1.36256 0.868471 3.38044 7.25 0 0 0.0930515 -0.672205 -1.36368 7.25 0 -1.77636e-15 -0.501128 -2.78741 -1.75789 0 -30.1395 -2 -2.30834 -3.22077 -9.5474 -1.77636e-15 -23.8605 2 0.523144 1.97226 -8.52152 -0.5 -1.5 2.65 0.693891 -1.43811 0.885083 0 -3.8 3.7 -7.64485e-16 1.10427 -1.59057e-15 0 -3 2.7 3.5863e-32 1.2921e-15 -1.59028e-15 0 -1.9 1.6 1.98785e-16 -4.96962e-17 -4.77083e-15 0 -8.3 1.9 -1.11479 -0.326407 -3.18061e-15 0 -4.5 8.88178e-16 -1.98785e-16 -2.48481e-17 -3.18055e-15 1.77636e-15 -3.4 0 -4.96962e-16 -4.96962e-17 -4.77083e-15 -0.25 -2.2 0.4 1.98785e-16 -4.96962e-17 -4.77083e-15 -1.77636e-15 -8.3 1 -0.832922 -0.271703 -3.18059e-15 0 -4.65 -6.66134e-16 1.98785e-16 -1.21756e-15 -3.18055e-15 1.77636e-15 -3.3 -1.55431e-15 1.98785e-16 -4.47266e-16 -3.18055e-15 -0.5 -2.15 -0.8 1.98785e-16 -4.96962e-17 -4.77083e-15 0 -7.75 -0.2 -0.280375 -0.161674 -3.18057e-15 0 -3.8 4.44089e-16 -1.98785e-16 1.04362e-15 -0 0 -3.4 0 -1.98785e-16 9.93923e-16 -3.18055e-15 -0.75 -1.75 -1.85 1.98785e-16 -4.96962e-17 -4.77083e-15 0 -7.15 -1 1.92887e-16 -0.106247 -3.18056e-15 0 -3 -8.88178e-16 -7.44847e-32 2.68359e-15 1.59028e-15 0 -2.35 8.88178e-16 -1.98785e-16 1.78906e-15 1.59028e-15 -5 17 0 -0.531909 0.349822 -1.97722 -7.25 0 0 -0.071723 0.323029 4.30319 -7.25 0 0 0.899667 -2.49139 4.5379 -3.55271e-15 -30.1395 -2 1.87518 -0.379144 5.80547 0 -23.8605 2 -0.549178 0.43864 -0.0744663 0.5 -1.5 2.65 0.0957838 -3.24708 -3.63692 0 -3.8 3.7 0.0569189 2.20249 3.18291e-15 0 -3 2.7 8.3213e-18 0.149903 -3.18057e-15 0 -1.9 1.6 5.96354e-16 -3.97569e-16 6.36111e-15 0 -8.3 1.9 0.0211148 -1.34731 -3.18143e-15 0 -4.5 0 -3.97569e-16 3.97569e-16 -3.18055e-15 0 -3.4 -1.77636e-15 7.95139e-16 0 -3.18055e-15 0.25 -2.2 0.4 5.96354e-16 -3.97569e-16 6.36111e-15 0 -8.3 1 0.0163373 -1.23193 -6.36258e-15 0 -4.65 0 -6.62086e-32 1.19271e-15 3.18055e-15 3.55271e-15 -3.3 0 -3.97569e-16 3.97569e-16 -0 0.5 -2.15 -0.8 5.96354e-16 -3.97569e-16 6.36111e-15 0 -7.75 -0.2 0.00929268 -0.997871 -3.18104e-15 0 -3.8 3.55271e-15 -3.97569e-16 0 -0 -3.55271e-15 -3.4 -3.55271e-15 0 0 -3.18055e-15 0.75 -1.75 -1.85 5.96354e-16 -3.97569e-16 6.36111e-15 0 -7.15 -1 0.00662815 -0.88073 3.18093e-15 -3.55271e-15 -3 0 -3.97569e-16 0 -3.18055e-15 -3.55271e-15 -2.35 -1.77636e-15 3.97569e-16 -3.97569e-16 -0 12.5 1.42109e-14 0 -0.227713 -2.76402 -2.88217 8.88178e-16 -45.2616 -1 -0.000684355 4.57475 0.196565 0 -41.2384 -2 0.0388728 -1.80676 3.62719 -1.77636e-15 -7.5 12.5 -2.91188e-19 -1.21329e-18 6.36111e-15 -8.88178e-16 1.73472e-18 4 -0.1842 -0.0134696 0.00996499 -12.5 2.84217e-14 0 -0.107 -1.06564 -1.49892 0 -45.2616 -1 0.00413122 3.98478 -0.099372 0 -41.2384 -2 0.0432892 -2.90954 1.8848 0 -7.5 12.5 -1.94126e-19 -1.35888e-18 -0 0 0 4 -0.142826 -0.410087 -0.000523016 
-3.61412 93.8938 9.52083 -0.0188968 0.0364224 120.741 -8.88178e-16 8.59463 0 0.308596 0.484577 0.283938 -8.88178e-16 8.59463 0 -0.173914 -0.242778 -0.451993 0 8.59463 0 -0.0778113 -0.125333 -0.224416 0 8.59463 0 -0.0778102 -0.125331 -0.22441 0 18.2636 0 0.440493 -0.0845269 -0.0682425 -1.77636e-15 11.6027 8.88178e-16 -0.345843 -0.433594 -0.18152 5 17 -8.88178e-16 1.36293 0.868696 3.37288 7.25 0 1.77636e-15 0.0928062 -0.672392 -1.37827 7.25 0 1.77636e-15 -0.500362 -2.7869 -1.73241 -1.77636e-15 -30.1395 -2 -2.30697 -3.22074 -9.54887 1.77636e-15 -23.8605 2 0.523459 1.97268 -8.52052 -0.5 -1.5 2.65 0.69372 -1.43808 0.88429 -1.77636e-15 -3.8 3.7 -3.66923e-16 1.10401 -1.59057e-15 -1.77636e-15 -3 2.7 -6.62086e-32 -1.19271e-15 -3.18055e-15 0 -1.9 1.6 3.31043e-32 -5.96354e-16 3.18055e-15 0 -8.3 1.9 -1.11468 -0.328678 3.18061e-15 1.77636e-15 -4.5 -8.88178e-16 -2.98177e-16 6.4605e-16 -4.77083e-15 0 -3.4 8.88178e-16 -1.98785e-16 2.28602e-15 -3.18055e-15 -0.25 -2.2 0.4 3.31043e-32 -5.96354e-16 3.18055e-15 0 -8.3 1 -0.83308 -0.273536 -0 0 -4.65 -4.44089e-16 6.20706e-33 2.23633e-16 -1.59028e-15 0 -3.3 -6.66134e-16 2.75869e-32 9.93923e-16 -1.59028e-15 -0.5 -2.15 -0.8 3.31043e-32 -5.96354e-16 3.18055e-15 0 -7.75 -0.2 -0.280349 -0.163023 1.59028e-15 1.77636e-15 -3.8 0 0 4.96962e-16 -0 0 -3.4 -8.88178e-16 0 5.46658e-16 -0 -0.75 -1.75 -1.85 3.31043e-32 -5.96354e-16 3.18055e-15 0 -7.15 -1 5.99704e-18 -0.108033 3.18056e-15 0 -3 0 1.98785e-16 -4.96962e-17 -0 0 -2.35 1.77636e-15 0 0 -0 -5 17 0 -0.532087 0.349536 -1.98044 -7.25 0 1.77636e-15 -0.0716881 0.323109 4.30354 -7.25 -2.84217e-14 -1.77636e-15 0.903074 -2.49193 4.5319 0 -30.1395 -2 1.87482 -0.376321 5.80467 -3.55271e-15 -23.8605 2 -0.54847 0.441029 -0.0750979 0.5 -1.5 2.65 0.095866 -3.24664 -3.6376 3.55271e-15 -3.8 3.7 0.0569189 2.19679 -0 0 -3 2.7 -1.66426e-17 0.149903 6.36113e-15 0 -1.9 1.6 -1.98785e-16 1.98785e-16 -0 -3.55271e-15 -8.3 1.9 0.0211148 -1.34749 9.5443e-15 0 -4.5 1.77636e-15 3.97569e-16 -1.19271e-15 3.18055e-15 0 -3.4 0 -0 -3.97569e-16 -0 0.25 -2.2 0.4 -1.98785e-16 1.98785e-16 -0 0 -8.3 1 0.0163373 -1.23221 6.36258e-15 0 -4.65 1.77636e-15 -3.97569e-16 0 -3.18055e-15 0 -3.3 -1.77636e-15 0 0 -0 0.5 -2.15 -0.8 -1.98785e-16 1.98785e-16 -0 -3.55271e-15 -7.75 -0.2 0.00929268 -0.998097 3.18104e-15 0 -3.8 0 -3.97569e-16 3.97569e-16 -0 0 -3.4 1.77636e-15 -3.97569e-16 3.97569e-16 -3.18055e-15 0.75 -1.75 -1.85 -1.98785e-16 1.98785e-16 -0 3.55271e-15 -7.15 -1 0.00662815 -0.880813 6.36186e-15 0 -3 1.77636e-15 -3.97569e-16 3.97569e-16 -6.36111e-15 0 -2.35 0 4.41391e-32 -3.97569e-16 6.36111e-15 12.5 0 -1.77636e-15 -0.227658 -2.76361 -2.8834 0 -45.2616 -1 -0.000650505 4.57453 0.19615 -8.88178e-16 -41.2384 -2 0.0389478 -1.80668 3.63192 -8.88178e-16 -7.5 12.5 1.94126e-19 1.45594e-19 -0 0 1.73472e-18 4 -0.18166 -0.0133678 0.00996499 -12.5 -1.42109e-14 0 -0.106815 -1.06593 -1.49329 0 -45.2616 -1 0.00411522 3.98455 -0.0991475 3.55271e-15 -41.2384 -2 0.0432008 -2.90875 1.88481 0 -7.5 12.5 4.85314e-19 -1.21329e-18 -0 0 0 4 -0.142879 -0.410079 -0.000523016 
-3.61428 93.8938 9.52097 -0.0188041 0.0363978 120.736 0 8.59463 0 0.308638 0.484678 0.283638 8.88178e-16 8.59463 0 -0.173955 -0.242888 -0.451832 -8.88178e-16 8.59463 1.77636e-15 -0.0778111 -0.125425 -0.224188 -8.88178e-16 8.59463 0 -0.0778101 -0.125423 -0.224182 8.88178e-16 18.2636 0 0.440745 -0.0847793 -0.0684218 8.88178e-16 11.6027 0 -0.345815 -0.428586 -0.185439 5 17 0 1.36331 0.868919 3.36331 7.25 0 -1.77636e-15 0.0924922 -0.672942 -1.39787 7.25 -2.84217e-14 -1.77636e-15 -0.499352 -2.78636 -1.70149 -1.77636e-15 -30.1395 -2 -2.30527 -3.2207 -9.55029 0 -23.8605 2 0.523777 1.97309 -8.51919 -0.5 -1.5 2.65 0.693551 -1.43805 0.883529 -1.77636e-15 -3.8 3.7 -3.06406e-17 1.10381 1.59057e-15 -1.77636e-15 -3 2.7 3.97569e-16 -8.94531e-16 -3.18055e-15 0 -1.9 1.6 -4.13804e-33 -1.49089e-16 -1.59028e-15 0 -8.3 1.9 -1.11457 -0.329945 -1.5903e-15 0 -4.5 4.44089e-16 1.03451e-32 -3.72721e-16 1.59028e-15 -1.77636e-15 -3.4 4.44089e-16 -1.98785e-16 -4.22417e-16 1.59028e-15 -0.25 -2.2 0.4 -4.13804e-33 -1.49089e-16 -1.59028e-15 0 -8.3 1 -0.833241 -0.275013 -0 0 -4.65 -8.88178e-16 -5.51738e-33 -1.98785e-16 -1.59028e-15 0 -3.3 8.88178e-16 -2.06902e-33 -7.45443e-17 -1.59028e-15 -0.5 -2.15 -0.8 -4.13804e-33 -1.49089e-16 -1.59028e-15 0 -7.75 -0.2 -0.280324 -0.164245 -3.18057e-15 0 -3.8 8.88178e-16 -1.98785e-16 -1.19271e-15 -3.18055e-15 0 -3.4 1.77636e-15 -1.98785e-16 -1.14301e-15 -1.59028e-15 -0.75 -1.75 -1.85 -4.13804e-33 -1.49089e-16 -1.59028e-15 0 -7.15 -1 -0 -0.109147 -0 0 -3 -1.77636e-15 1.98785e-16 -1.2921e-15 3.18055e-15 0 -2.35 0 1.98785e-16 -1.39149e-15 -0 -5 17 0 -0.532258 0.349263 -1.98411 -7.25 -2.84217e-14 0 -0.0716537 0.323189 4.30388 -7.25 0 -1.77636e-15 0.906525 -2.49248 4.5264 3.55271e-15 -30.1395 -2 1.87449 -0.373857 5.80384 0 -23.8605 2 -0.547828 0.442048 -0.0763551 0.5 -1.5 2.65 0.0947073 -3.24639 -3.6393 3.55271e-15 -3.8 3.7 0.0569189 2.19147 3.18288e-15 -3.55271e-15 -3 2.7 -3.72605e-16 0.149903 -9.5417e-15 3.55271e-15 -1.9 1.6 -1.98785e-16 0 1.27222e-14 0 -8.3 1.9 0.0211148 -1.34756 -0 0 -4.5 1.77636e-15 -7.95139e-16 3.97569e-16 -3.18055e-15 -3.55271e-15 -3.4 -1.77636e-15 -3.97569e-16 7.95139e-16 -0 0.25 -2.2 0.4 -1.98785e-16 0 1.27222e-14 0 -8.3 1 0.0163373 -1.23241 -0 0 -4.65 0 -3.97569e-16 7.95139e-16 3.18055e-15 0 -3.3 -1.77636e-15 -0 0 3.18055e-15 0.5 -2.15 -0.8 -1.98785e-16 0 1.27222e-14 0 -7.75 -0.2 0.00929268 -0.998253 -0 0 -3.8 1.77636e-15 -4.41391e-32 7.95139e-16 3.18055e-15 3.55271e-15 -3.4 1.77636e-15 -3.97569e-16 7.95139e-16 3.18055e-15 0.75 -1.75 -1.85 -1.98785e-16 0 1.27222e-14 0 -7.15 -1 0.00662815 -0.880854 6.36186e-15 0 -3 -3.55271e-15 6.62086e-32 1.19271e-15 -3.18055e-15 0 -2.35 0 -7.95139e-16 1.59028e-15 6.36111e-15 12.5 0 0 -0.2276 -2.76322 -2.88459 0 -45.2616 -1 -0.000616589 4.57432 0.195734 8.88178e-16 -41.2384 -2 0.0390659 -1.8066 3.638 8.88178e-16 -7.5 12.5 -4.85314e-19 2.91188e-19 -6.36111e-15 0 1.73472e-18 4 -0.179242 -0.0132676 0.00996499 -12.5 1.42109e-14 0 -0.106654 -1.06621 -1.48902 0 -45.2616 -1 0.004099 3.98433 -0.0989196 0 -41.2384 -2 0.0431179 -2.90815 1.88478 -3.55271e-15 -7.5 12.5 6.7944e-19 -2.91188e-19 6.36111e-15 3.55271e-15 3.46945e-18 4 -0.142932 -0.410071 -0.000523016 
